<?xml version="1.0" standalone="no"?>
<!DOCTYPE svg PUBLIC "-//W3C//DTD SVG 20010904//EN"
 "http://www.w3.org/TR/2001/REC-SVG-20010904/DTD/svg10.dtd">
<svg version="1.0" xmlns="http://www.w3.org/2000/svg"
 width="512.000000pt" height="512.000000pt" viewBox="0 0 512.000000 512.000000"
 preserveAspectRatio="xMidYMid meet">

<g transform="translate(0.000000,512.000000) scale(0.100000,-0.100000)"
fill="currentColor" stroke="none">
<path d="M2478 4870 c-26 -5 -71 -16 -100 -26 -101 -33 -2152 -884 -2185 -906
-66 -45 -113 -143 -113 -234 0 -24 9 -68 21 -99 37 -98 49 -105 594 -330 270
-111 722 -298 1005 -415 554 -229 620 -254 712 -270 90 -17 253 -14 338 6 78
17 118 33 738 289 l383 157 477 -197 c262 -108 485 -204 496 -213 49 -44 55
-130 13 -170 -27 -25 -2037 -854 -2128 -878 -91 -24 -243 -22 -339 4 -109 30
-2109 857 -2125 879 -32 41 -30 107 3 151 12 15 119 65 331 152 173 71 322
137 333 146 43 39 7 134 -51 134 -12 0 -167 -59 -344 -132 -304 -124 -325
-135 -374 -182 -40 -40 -55 -64 -68 -110 -21 -72 -16 -155 13 -212 43 -84 63
-95 503 -276 228 -93 417 -173 421 -177 4 -4 -181 -85 -413 -181 -413 -170
-421 -174 -465 -223 -98 -109 -98 -271 0 -375 17 -19 43 -40 57 -47 78 -41
2083 -860 2148 -877 108 -29 306 -29 412 0 64 17 2069 835 2149 877 47 25 98
91 116 151 31 106 -4 226 -85 295 -28 24 -144 77 -409 187 -204 83 -381 152
-394 152 -57 0 -92 -95 -50 -133 10 -9 178 -83 373 -163 195 -81 362 -154 373
-163 45 -38 55 -119 21 -165 -16 -21 -2034 -857 -2125 -881 -125 -32 -265 -28
-385 12 -54 17 -2022 826 -2067 849 -31 16 -53 72 -44 115 13 67 14 67 525
279 l489 202 514 -212 c302 -125 548 -220 598 -232 108 -26 284 -28 385 -4 39
9 541 211 1118 448 798 329 1057 439 1086 465 60 51 86 113 85 203 0 61 -5 84
-27 126 -47 93 -72 106 -516 290 -225 92 -408 171 -406 174 2 4 189 83 416
176 443 182 469 196 510 281 32 67 32 179 0 245 -39 82 -89 116 -271 192 -171
71 -1676 692 -1882 777 -173 71 -273 88 -390 69z m182 -164 c48 -13 2103 -857
2171 -892 57 -29 72 -139 26 -182 -26 -24 -2039 -854 -2125 -876 -76 -20 -246
-21 -328 -1 -88 20 -2104 852 -2132 879 -48 47 -34 149 27 180 62 33 2118 878
2166 891 66 18 129 18 195 1z"/>
</g>
</svg>
